<?xml version="1.0" standalone="no"?>
<!DOCTYPE svg PUBLIC "-//W3C//DTD SVG 20010904//EN"
 "http://www.w3.org/TR/2001/REC-SVG-20010904/DTD/svg10.dtd">
<svg version="1.0" xmlns="http://www.w3.org/2000/svg"
 width="625.000000pt" height="624.000000pt" viewBox="0 0 625.000000 624.000000"
 preserveAspectRatio="xMidYMid meet">

<g transform="translate(0.000000,624.000000) scale(0.100000,-0.100000)"
fill="#000000" stroke="none">
<path d="M2404 4805 c-238 -52 -446 -226 -528 -442 -52 -139 -51 -122 -51
-843 l0 -675 23 -75 c81 -257 259 -435 514 -512 71 -21 86 -22 698 -26 421 -2
652 0 708 8 170 22 305 90 427 214 93 95 136 162 179 284 l31 87 0 695 0 695
-23 75 c-82 263 -271 442 -536 510 -76 19 -108 20 -730 19 -503 0 -665 -4
-712 -14z m1260 -577 c9 -12 16 -32 16 -45 0 -12 6 -26 14 -30 39 -23 42 -94
5 -114 -27 -14 -24 -53 6 -83 14 -14 25 -34 25 -46 0 -12 -11 -32 -25 -46 -14
-14 -25 -32 -25 -40 0 -9 -9 -18 -20 -21 -16 -4 -20 -15 -22 -66 -3 -67 -18
-84 -61 -73 -26 6 -27 9 -27 70 0 59 -2 65 -22 68 -23 3 -23 4 -26 202 -2 193
-2 200 20 223 31 33 119 34 142 1z m-706 -133 c2 -102 5 -122 22 -140 20 -21
19 -21 -105 -145 l-125 -125 -22 23 -23 22 83 83 c78 79 82 85 82 127 l0 45
-140 -140 -140 -140 0 -357 c0 -197 3 -358 7 -358 4 0 81 73 169 161 115 115
167 160 178 156 12 -5 16 -21 16 -74 l0 -68 -182 -182 c-169 -169 -186 -183
-218 -183 -20 0 -41 5 -48 12 -9 9 -12 133 -12 497 l0 486 213 213 c119 120
219 211 227 210 12 -3 16 -26 18 -123z m376 47 c44 -26 68 -65 74 -121 8 -85
-34 -147 -116 -172 -78 -23 -168 28 -192 108 -17 57 -5 107 36 153 53 59 129
71 198 32z m136 -562 c97 0 120 -3 147 -20 60 -36 55 -121 -7 -153 -30 -16
-55 -18 -175 -15 -105 3 -147 8 -170 20 -16 9 -86 73 -155 142 -69 69 -128
126 -132 126 -20 0 -4 -30 37 -70 25 -24 45 -49 45 -56 0 -6 -19 -30 -42 -53
l-42 -42 -90 90 -91 91 125 125 125 125 155 -155 155 -155 115 0z m-658 -291
c-104 -104 -124 -120 -137 -109 -13 11 -15 49 -15 259 l0 246 137 -137 137
-137 -122 -122z"/>
<path d="M3607 4132 c-10 -10 -17 -24 -17 -30 0 -6 -8 -15 -17 -21 -27 -15 -4
-45 36 -49 42 -4 71 21 71 63 0 53 -40 73 -73 37z"/>
<path d="M3620 3957 c-20 -16 -60 -74 -60 -86 0 -14 34 -31 59 -31 51 0 81 79
43 113 -22 20 -23 20 -42 4z"/>
<path d="M2620 1665 l0 -275 40 0 40 0 0 275 0 275 -40 0 -40 0 0 -275z"/>
<path d="M2830 1665 l0 -275 40 0 40 0 0 275 0 275 -40 0 -40 0 0 -275z"/>
<path d="M3600 1910 c-22 -41 11 -76 60 -63 25 7 37 48 20 68 -19 22 -67 19
-80 -5z"/>
<path d="M1727 1903 c-4 -3 -7 -21 -7 -40 l0 -33 85 0 85 0 0 -220 0 -220 45
0 45 0 0 220 0 220 80 0 80 0 0 40 0 40 -203 0 c-112 0 -207 -3 -210 -7z"/>
<path d="M2240 1767 c-58 -39 -75 -79 -75 -182 0 -103 17 -143 75 -182 47 -33
153 -33 200 0 58 39 75 79 75 182 0 73 -4 97 -21 125 -34 58 -76 80 -154 80
-53 0 -74 -5 -100 -23z m174 -80 c17 -23 21 -43 21 -102 0 -99 -20 -129 -92
-133 -44 -3 -53 0 -71 23 -40 51 -40 169 0 220 18 23 26 26 71 23 41 -2 54 -8
71 -31z"/>
<path d="M3855 1780 c-43 -17 -68 -57 -68 -106 0 -40 4 -51 31 -75 18 -16 62
-37 101 -49 45 -13 75 -28 81 -40 33 -61 -83 -95 -143 -42 -16 15 -21 15 -44
2 -38 -22 -38 -35 -1 -61 24 -18 50 -25 100 -27 115 -7 168 31 168 118 0 64
-30 93 -124 121 -39 12 -77 26 -83 31 -33 26 5 78 55 78 14 0 41 -9 62 -21 36
-20 38 -21 64 -4 26 17 26 18 9 37 -10 11 -30 26 -45 34 -29 15 -131 18 -163
4z"/>
<path d="M4241 1768 c-59 -40 -76 -80 -76 -183 0 -147 43 -198 173 -203 68 -3
81 -1 112 20 42 29 44 47 8 67 -24 14 -28 14 -46 -2 -24 -22 -99 -23 -129 -2
-22 16 -47 81 -37 97 3 4 61 8 130 8 l124 0 0 50 c0 60 -18 106 -54 140 -23
20 -39 25 -99 28 -62 3 -77 1 -106 -20z m154 -63 c14 -13 25 -36 25 -50 0 -25
-1 -25 -85 -25 -91 0 -99 5 -73 53 28 53 92 64 133 22z"/>
<path d="M2990 1773 c0 -5 22 -91 49 -193 l48 -185 38 0 38 0 47 134 47 135
45 -135 45 -134 38 0 38 0 48 185 c27 102 48 188 49 193 0 4 -18 7 -39 7 l-39
0 -15 -67 c-8 -38 -21 -96 -28 -130 -7 -35 -16 -63 -19 -63 -3 0 -25 59 -48
130 l-43 130 -32 0 -33 0 -45 -137 -45 -137 -28 119 c-15 66 -30 128 -32 138
-4 12 -16 17 -45 17 -21 0 -39 -3 -39 -7z"/>
<path d="M3600 1585 l0 -195 40 0 40 0 0 195 0 195 -40 0 -40 0 0 -195z"/>
</g>
</svg>
